<svg enable-background="new 0 0 32 32" height="32" viewBox="0 0 32 32" width="32" xmlns="http://www.w3.org/2000/svg" xmlns:xlink="http://www.w3.org/1999/xlink"><linearGradient id="a" gradientTransform="matrix(.7767 .6299 -.6299 .7767 90.6797 -56.2485)" gradientUnits="userSpaceOnUse" x1="-13.6887" x2=".7594" y1="109.4706" y2="109.4706"><stop offset="0" stop-color="#b1202a"/><stop offset=".6" stop-color="#561114"/></linearGradient><linearGradient id="b" gradientTransform="matrix(.7747 .6323 -.6323 .7747 90.087 -55.7329)" gradientUnits="userSpaceOnUse" x1="-28.086" x2="-12.9617" y1="108.7528" y2="108.7528"><stop offset="0" stop-color="#134471"/><stop offset="1" stop-color="#0f76b9"/></linearGradient><linearGradient id="c" gradientTransform="matrix(.7836 .6213 -.6213 .7836 90.5654 -56.4411)" gradientUnits="userSpaceOnUse" x1="-29.6372" x2="-15.0277" y1="91.3245" y2="91.3245"><stop offset=".5" stop-color="#f68c20"/><stop offset="1" stop-color="#fbe400"/></linearGradient><linearGradient id="d" gradientTransform="matrix(.7836 .6213 -.6213 .7836 90.5654 -56.4411)" gradientUnits="userSpaceOnUse" x1="-14.6405" x2="-.093531" y1="91.4257" y2="91.4257"><stop offset="0" stop-color="#fbe400"/><stop offset=".5" stop-color="#f68c20"/></linearGradient><path d="m20.3 8.8c3.8 3.5 6.4 7.7 8.5 12.4-6 1.1-21.2 7.8-26.4 10.8 4-5 14-18.4 17.9-23.2z" fill="url(#a)"/><path d="m6.1 2.8c5.1.9 9.7 2.8 13.9 5.7-3.9 4.8-14 18.2-18 23.2 2.1-7 4.5-22.6 4.1-28.9z" fill="url(#b)"/><path d="m20.2 8.1c-3.2-2.4-9.8-5-14.1-5.8 4.2-.5 20.3-2.3 20.3-2.3-1.6 2.2-4.8 6.3-6.2 8.1z" fill="url(#c)"/><path d="m29.1 20.9c-1.3-3.4-5.6-10.2-8.6-12.5 1.5-2 4.7-6 6.4-8.1.5 4.4 1.7 16.4 2.2 20.6z" fill="url(#d)"/></svg>